<svg xmlns="http://www.w3.org/2000/svg" version="1.1" viewBox="-5.0 -10.0 110.0 135.0">
 <g>
  <path d="m20.086 10.164h-10.465c-0.93359 0.003907-1.6914 0.75781-1.6914 1.6914v10.465c-0.003907 0.93359 0.75 1.6914 1.6797 1.6914h0.011719 10.461c0.93359 0.003906 1.6914-0.75 1.6914-1.6797v-0.011719l0.003906-10.461c0-0.93359-0.75781-1.6914-1.6914-1.6953zm-1.6914 10.465h-7.0742v-7.0742h7.0742z"/>
  <path d="m94.016 5.0508h-17.402c-1.8672 0.003907-3.3789 1.5195-3.3867 3.3867v7.0156h-17.809c-0.93359 0-1.6914 0.75781-1.6914 1.6914v0.003907 16.531h-8.8867v-3.1328c2.8008-0.92188 4.3281-3.9375 3.4062-6.7422-0.92188-2.8008-3.9375-4.3281-6.7422-3.4062-2.8047 0.92187-4.3281 3.9375-3.4062 6.7422 0.52344 1.5938 1.7656 2.8516 3.3555 3.3906v3.1484h-4.2812c-2.8008-0.003907-5.0742 2.2656-5.0781 5.0664v0.015625 6.5312l-15.543-0.003907v-16.113h7.0039c1.8672 0 3.3867-1.5156 3.3867-3.3828v-0.003907-17.402c-0.003906-1.8672-1.5195-3.3789-3.3867-3.3867l-17.402 0.003906c-1.8672 0.003906-3.3789 1.5156-3.3867 3.3828v17.402c0 1.8672 1.5156 3.3867 3.3828 3.3867h0.003906 7.0117v17.805c0 0.93359 0.75781 1.6914 1.6914 1.6914h17.23v4.6406h-1.7109c-0.92188-2.793-3.9297-4.3086-6.7227-3.3867-2.793 0.92188-4.3086 3.9297-3.3867 6.7227 0.92188 2.793 3.9297 4.3086 6.7227 3.3867 1.5859-0.52344 2.832-1.7578 3.3711-3.3359h1.7266v4.6562c0.003906 2.8047 2.2734 5.0781 5.0781 5.0781h4.3438v14.77l-14.734 0.003906v-7c0-1.8672-1.5156-3.3867-3.3828-3.3867h-0.003906-17.402c-1.8672 0-3.3867 1.5156-3.3867 3.3828v0.003906 17.402c0.003906 1.8672 1.5195 3.3789 3.3867 3.3867h17.402c1.8672-0.003906 3.3789-1.5195 3.3867-3.3867v-7.0195h16.43c0.93359 0 1.6914-0.75781 1.6914-1.6914v-16.461h6.4805c-0.007812 0 0.011719 3.4297-0.007812 3.4219-2.7734 0.94922-4.2539 3.9648-3.3047 6.7383 0.94922 2.7734 3.9648 4.2539 6.7383 3.3047 2.7734-0.94922 4.2539-3.9648 3.3047-6.7383-0.53516-1.5703-1.7734-2.7969-3.3477-3.3203v-3.4062h3.9727c2.8008-0.007812 5.0703-2.2773 5.0781-5.0781v-8.2969h14.941v17.762h-7.0039c-1.8672 0-3.3867 1.5156-3.3867 3.3828v0.003907 17.402c0.003906 1.8672 1.5195 3.3789 3.3867 3.3867h17.402c1.8672-0.003906 3.3789-1.5195 3.3867-3.3867l0.007813-17.402c0-1.8672-1.5156-3.3867-3.3828-3.3867h-0.003906-7.0156v-19.453c0-0.93359-0.75781-1.6914-1.6914-1.6914h-0.003907-16.633v-6.4648h4.4844c0.92188 2.793 3.9297 4.3086 6.7227 3.3867 2.793-0.92187 4.3086-3.9297 3.3867-6.7227-0.92188-2.793-3.9297-4.3086-6.7227-3.3867-1.5859 0.52344-2.832 1.7578-3.3711 3.3359h-4.5039c0.48047-2.8711-1.4531-5.5938-4.3281-6.0742-0.24609-0.042968-0.5-0.066406-0.75-0.070312h-1.625l0.003906-14.844h16.117v7.0039c0.003907 1.8672 1.5195 3.3789 3.3867 3.3867h17.402c1.8672-0.003907 3.3789-1.5195 3.3867-3.3867v-17.406c-0.003906-1.8672-1.5195-3.3789-3.3867-3.3867zm-52.801 20.434c0.019531-1.0703 0.90234-1.9219 1.9727-1.9023 1.043 0.019531 1.8867 0.85938 1.9023 1.9023-0.019532 1.0703-0.90234 1.9219-1.9727 1.9023-1.043-0.015625-1.8867-0.85547-1.9023-1.9023zm-35.062-17.098h17.402v17.402h-17.402zm19.164 48.555c-1.0703-0.019531-1.9219-0.90234-1.9023-1.9727 0.019532-1.043 0.85938-1.8828 1.9023-1.9023 1.0703 0.019532 1.9219 0.90234 1.9023 1.9727-0.019531 1.043-0.85938 1.8828-1.9023 1.9023zm-19.332 34.672v-17.402h17.402v8.6484c0.027343 0.082031-0.019531 8.6602 0 8.7539zm47.098-14.781c-1.0703-0.011719-1.9297-0.88672-1.918-1.9531 0.011719-1.0508 0.85547-1.9023 1.9062-1.918 1.0703 0.011718 1.9297 0.88672 1.918 1.9531-0.011719 1.0508-0.85547 1.9023-1.9062 1.918zm36.074 14.781h-17.402v-17.402h17.402zm-15.809-52.023c1.0703 0 1.9375 0.86719 1.9375 1.9375 0 1.0703-0.86719 1.9375-1.9375 1.9375-1.0703 0-1.9375-0.86719-1.9375-1.9375-0.003906-1.0703 0.86328-1.9375 1.9375-1.9375zm-12.918-0.83203c-0.015626 5.5977 0.011718 17.062 0 22.602-0.003907 0.93359-0.75781 1.6914-1.6914 1.6914h-5.6016c-0.042969-0.015625-0.089844-0.015625-0.13281 0h-9.7344c-0.042969-0.015625-0.089843-0.015625-0.13281 0h-5.9688c-0.93359 0.003907-1.6914-0.75-1.6914-1.6797v-0.011719-22.602c-0.007812-0.92578 0.73438-1.6836 1.6602-1.6914h0.03125 21.566c0.93359-0.003906 1.6914 0.75 1.6914 1.6797 0.003907 0.003906 0.003907 0.007812 0.003907 0.011718zm33.586-12.914h-17.402v-17.406h17.402z"/>
  <path d="m80.234 23.91h10.156c0.93359-0.003906 1.6914-0.75781 1.6914-1.6914l0.003907-10.156c-0.003907-0.93359-0.75781-1.6914-1.6914-1.6914l-10.16-0.003906c-0.93359 0.003906-1.6914 0.75781-1.6914 1.6914v10.156c0.003906 0.9375 0.75781 1.6953 1.6914 1.6953zm1.6953-10.156h6.7734v6.7734h-6.7734z"/>
  <path d="m75.379 89.684h10.156c0.93359-0.003906 1.6914-0.75781 1.6914-1.6914v-10.16c0.003907-0.93359-0.75-1.6914-1.6797-1.6914h-0.011719-10.156c-0.92578-0.007813-1.6836 0.73438-1.6914 1.6602v0.03125l-0.003906 10.156c-0.003906 0.93359 0.75 1.6914 1.6797 1.6914 0.003907 0.003906 0.007813 0.003906 0.015625 0.003906zm1.6914-10.16h6.7734v6.7734h-6.7734z"/>
  <path d="m19.914 75.988h-10.461c-0.93359-0.003906-1.6914 0.75-1.6914 1.6797v0.011719 10.461c0.003906 0.93359 0.75781 1.6914 1.6914 1.6914h10.461c0.93359-0.003906 1.6914-0.75781 1.6914-1.6914l0.003906-10.461c0.003906-0.93359-0.75-1.6914-1.6797-1.6914h-0.015626zm-1.6914 10.461h-7.0742v-7.0742h7.0742z"/>
 </g>
<text x="0.0" y="117.5" font-size="5.0" font-weight="bold" font-family="Arbeit Regular, Helvetica, Arial-Unicode, Arial, Sans-serif" fill="#000000">Created by Nico B&#246;kenkr&#246;ger</text><text x="0.0" y="122.5" font-size="5.0" font-weight="bold" font-family="Arbeit Regular, Helvetica, Arial-Unicode, Arial, Sans-serif" fill="#000000">from Noun Project</text></svg>