<svg version="1.1" id="Layer_1" xmlns="http://www.w3.org/2000/svg" xmlns:xlink="http://www.w3.org/1999/xlink" x="0px" y="0px"
	 width="100%" viewBox="0 0 696 667" enable-background="new 0 0 696 667" xml:space="preserve">
<path fill="#FFFFFE" opacity="1.000000" stroke="none" 
	d="
M1.000000,264.000000 
	C1.000000,176.000000 1.000000,88.500000 1.000000,1.000000 
	C233.000000,1.000000 465.000000,1.000000 697.000000,1.000000 
	C697.000000,223.333328 697.000000,445.666656 697.000000,668.000000 
	C465.000000,668.000000 233.000000,668.000000 1.000000,668.000000 
	C1.000000,533.500000 1.000000,399.000000 1.000000,264.000000 
M615.802124,567.500000 
	C615.806763,542.171021 615.658264,516.840698 615.879883,491.513580 
	C615.992798,478.603577 606.513367,467.977234 593.136597,468.768585 
	C581.677734,469.446472 570.140869,468.690704 558.650391,469.006134 
	C553.900696,469.136475 552.773865,467.463745 552.793396,462.967590 
	C552.950500,426.804413 552.887756,390.640198 552.874573,354.476318 
	C552.870972,344.520203 549.353333,341.041168 539.283386,341.036316 
	C508.619080,341.021545 477.954590,340.981842 447.290680,341.091309 
	C443.533813,341.104706 441.863983,340.171722 441.964935,336.066010 
	C442.202484,326.405914 442.152588,316.734009 441.982178,307.071106 
	C441.919983,303.546173 442.806122,301.856171 446.711700,302.018219 
	C452.867310,302.273590 459.058441,301.831146 465.196808,302.244507 
	C467.002655,302.366089 469.438507,303.978333 470.297272,305.592773 
	C476.860291,317.930298 486.752380,324.464478 500.896942,324.021271 
	C514.458984,323.596313 524.031677,316.745270 529.306458,304.639313 
	C534.722473,292.209229 532.513916,280.214874 523.403809,270.289551 
	C507.946533,253.449280 481.785583,257.350037 470.747101,277.633179 
	C469.918121,279.156403 468.087341,281.099060 466.646637,281.163818 
	C458.891235,281.512421 451.111908,281.328735 443.563477,281.328735 
	C442.656799,276.122955 442.506531,270.833252 440.773346,266.126404 
	C435.252441,251.132843 424.648346,244.447311 406.911346,244.356018 
	C403.036285,244.336044 401.754547,243.323715 401.779999,239.307251 
	C401.947815,212.810333 401.934021,186.311539 401.800720,159.814270 
	C401.782349,156.165527 402.719421,154.903961 406.542297,154.922760 
	C435.706024,155.066162 464.871155,155.074783 494.034729,154.918228 
	C498.182983,154.895966 499.074707,156.463821 499.018768,160.220093 
	C498.837524,172.383087 498.904877,184.550797 498.969879,196.716187 
	C499.034058,208.726776 507.482635,217.751877 519.562805,217.823425 
	C554.558777,218.030716 589.557800,218.043213 624.553467,217.811157 
	C636.369751,217.732803 644.898315,208.664185 644.927490,196.862152 
	C645.013062,162.198380 645.012268,127.534126 644.933044,92.870323 
	C644.904907,80.553978 636.266663,71.451477 623.970093,71.378395 
	C589.307312,71.172363 554.641785,71.173271 519.979004,71.377655 
	C507.681274,71.450157 499.055725,80.608109 498.961487,92.789772 
	C498.900879,100.622055 498.946075,108.455147 498.944855,116.287880 
	C498.943970,122.069427 498.944672,127.850975 498.944672,134.192657 
	C496.344452,134.192657 494.387238,134.192657 492.430023,134.192657 
	C459.932526,134.192795 427.435028,134.187683 394.937531,134.196198 
	C384.724152,134.198883 381.102234,137.810303 381.097931,148.021576 
	C381.085114,178.352585 381.018616,208.683960 381.177460,239.014145 
	C381.199341,243.193039 379.936584,244.446106 375.798096,244.354370 
	C364.471222,244.103241 353.135071,244.267975 341.802612,244.268005 
	C327.635590,244.268021 327.721375,244.268265 327.764130,230.206299 
	C327.773438,227.148392 328.680939,225.465149 331.498749,224.027649 
	C344.622833,217.332489 352.138397,202.940399 349.562073,189.833923 
	C346.855865,176.066635 335.797394,163.797318 319.689606,162.809036 
	C305.706604,161.951111 291.867157,170.386765 287.153320,183.563324 
	C282.115173,197.646378 286.438629,213.842972 298.846283,221.000626 
	C305.975616,225.113388 308.168457,229.867371 307.057068,237.252350 
	C306.909882,238.230255 306.952148,239.257385 307.049988,240.247574 
	C307.349487,243.279312 306.036285,244.381912 303.006592,244.313446 
	C296.343903,244.162872 289.674164,244.188278 283.009430,244.285645 
	C263.292999,244.573685 250.278122,257.789734 250.245850,277.492798 
	C250.228394,288.158630 250.011108,298.831818 250.349396,309.486938 
	C250.494537,314.058594 248.929871,315.048035 244.648758,314.964600 
	C224.169006,314.565552 203.683334,314.460327 183.199448,314.289093 
	C176.033829,314.229187 168.861008,314.100616 161.703751,314.352661 
	C157.975342,314.483917 156.830276,313.263062 156.847168,309.525208 
	C156.978088,280.528046 156.975006,251.529755 156.849640,222.532532 
	C156.833801,218.867340 157.846390,217.573044 161.640305,217.647629 
	C172.801788,217.867081 183.971619,217.830994 195.135895,217.700119 
	C211.877029,217.503891 219.790497,209.392441 219.792297,192.649353 
	C219.795898,159.318588 219.831543,125.987732 219.767273,92.657074 
	C219.743988,80.581993 210.676682,71.265999 198.681549,71.232521 
	C163.684647,71.134842 128.687012,71.152138 93.690193,71.275696 
	C82.877983,71.313873 73.358391,80.495949 73.300003,91.303261 
	C73.110016,126.466187 73.124413,161.631241 73.285492,196.794434 
	C73.334641,207.524582 80.892235,216.177826 91.583038,216.934097 
	C104.181152,217.825287 116.863823,217.548721 129.510696,217.711853 
	C136.115540,217.797058 136.124710,217.732498 136.125351,224.151810 
	C136.128586,256.482666 136.120590,288.813538 136.131042,321.144379 
	C136.134506,331.841675 139.391525,335.059662 150.203598,335.062744 
	C181.867828,335.071777 213.532349,335.128571 245.195953,334.987061 
	C249.085129,334.969696 250.535782,335.964508 250.308929,340.012665 
	C249.983093,345.827271 250.348602,351.677795 250.158051,357.504425 
	C250.093079,359.491272 251.619263,362.778717 247.769409,362.906891 
	C244.521652,363.015045 240.950256,364.245789 238.841476,359.680908 
	C232.125656,345.143066 216.197342,337.760284 201.578934,341.999146 
	C185.242645,346.736115 175.796173,360.969391 177.920044,377.646576 
	C179.659866,391.308197 189.748703,401.980591 203.586197,404.797394 
	C216.679962,407.462799 230.971817,400.951141 237.663132,389.271301 
	C241.142883,383.197327 242.658829,382.618713 250.230240,384.769684 
	C250.230240,393.275970 250.197800,401.915588 250.237213,410.554871 
	C250.312027,426.959290 260.919067,439.735962 277.279205,441.899231 
	C285.641754,443.004974 294.220215,442.642303 302.700104,442.617004 
	C306.193024,442.606567 307.286560,443.721405 307.270996,447.212799 
	C307.152771,473.710236 307.153839,500.208710 307.269867,526.706116 
	C307.285126,530.192139 306.191803,531.314209 302.694153,531.299011 
	C276.196686,531.183838 249.698227,531.179199 223.200851,531.303772 
	C219.640808,531.320618 218.642258,530.096497 218.688766,526.680176 
	C218.849792,514.849976 218.424545,503.004791 218.840103,491.187042 
	C219.243713,479.709015 209.533463,468.483704 196.740067,468.707031 
	C162.586441,469.303284 128.410294,469.249725 94.254326,468.724335 
	C82.248505,468.539673 72.284302,477.664520 72.251297,490.119812 
	C72.159866,524.616882 72.089699,559.115112 72.287949,593.611328 
	C72.360268,606.194885 81.503052,614.817322 93.972656,614.827637 
	C128.303329,614.856018 162.634048,614.856262 196.964722,614.828247 
	C209.648880,614.817932 218.672302,605.816895 218.733627,593.133606 
	C218.790848,581.301453 218.735809,569.468750 218.764114,557.636475 
	C218.768311,555.884949 218.959396,554.133850 219.086868,552.000000 
	C221.617035,552.000000 223.589890,552.000061 225.562744,552.000000 
	C255.393784,551.999512 285.224823,552.008606 315.055878,551.992737 
	C324.384430,551.987732 327.980011,548.363831 327.984833,538.964233 
	C328.000244,508.966553 327.991364,478.968842 327.991882,448.971161 
	C327.991913,447.041138 327.991852,445.111115 327.991852,442.720062 
	C336.415222,442.720062 344.057068,442.620209 351.694702,442.755920 
	C356.614258,442.843323 363.453491,441.455872 365.912781,444.057037 
	C368.472046,446.763916 366.707916,453.477814 367.009827,458.428894 
	C367.199402,461.537964 365.859070,463.175720 363.110138,464.586304 
	C349.735260,471.449219 343.237885,484.855713 345.918518,499.484344 
	C348.561310,513.906677 360.201965,524.037903 375.584351,525.303406 
	C389.748047,526.468750 402.687073,517.517212 407.959686,502.905457 
	C412.422852,490.536865 407.715790,474.099213 395.778229,467.448059 
	C388.332184,463.299438 386.859589,458.397827 387.752808,451.192261 
	C387.935913,449.714996 387.901978,448.183777 387.755798,446.698364 
	C387.452728,443.618927 388.796692,442.598938 391.801544,442.675079 
	C397.963684,442.831238 404.135040,442.825348 410.298462,442.692413 
	C429.557220,442.277100 442.647766,427.285767 442.116516,410.602722 
	C441.665894,396.451599 442.255219,382.269104 441.913361,368.111847 
	C441.787415,362.895691 443.551514,361.698547 448.496674,361.742371 
	C474.326019,361.971222 500.158447,361.843628 525.989807,361.860565 
	C527.910095,361.861847 529.830261,362.024414 531.731934,362.111145 
	C531.916321,363.372009 532.093506,364.019531 532.093872,364.667084 
	C532.111328,397.997803 532.066467,431.328705 532.181824,464.659058 
	C532.195190,468.526123 530.286255,468.956818 527.212585,468.936340 
	C515.214050,468.856384 503.214355,468.853516 491.215729,468.927277 
	C477.919189,469.009033 469.312958,477.564362 469.295013,490.786621 
	C469.249146,524.617249 469.248383,558.448120 469.293091,592.278809 
	C469.311310,606.055847 478.034943,614.851379 491.685944,614.868713 
	C525.516602,614.911621 559.347351,614.908386 593.178101,614.871399 
	C606.957581,614.856323 615.636902,606.242310 615.779541,592.497986 
	C615.862549,584.499451 615.798950,576.499390 615.802124,567.500000 
z"/>
<path fill="#FFCA66" opacity="1.000000" stroke="none" 
	d="
M615.801758,568.000000 
	C615.798950,576.499390 615.862549,584.499451 615.779541,592.497986 
	C615.636902,606.242310 606.957581,614.856323 593.178101,614.871399 
	C559.347351,614.908386 525.516602,614.911621 491.685944,614.868713 
	C478.034943,614.851379 469.311310,606.055847 469.293091,592.278809 
	C469.248383,558.448120 469.249146,524.617249 469.295013,490.786621 
	C469.312958,477.564362 477.919189,469.009033 491.215729,468.927277 
	C503.214355,468.853516 515.214050,468.856384 527.212585,468.936340 
	C530.286255,468.956818 532.195190,468.526123 532.181824,464.659058 
	C532.066467,431.328705 532.111328,397.997803 532.093872,364.667084 
	C532.093506,364.019531 531.916321,363.372009 531.731934,362.111145 
	C529.830261,362.024414 527.910095,361.861847 525.989807,361.860565 
	C500.158447,361.843628 474.326019,361.971222 448.496674,361.742371 
	C443.551514,361.698547 441.787415,362.895691 441.913361,368.111847 
	C442.255219,382.269104 441.665894,396.451599 442.116516,410.602722 
	C442.647766,427.285767 429.557220,442.277100 410.298462,442.692413 
	C404.135040,442.825348 397.963684,442.831238 391.801544,442.675079 
	C388.796692,442.598938 387.452728,443.618927 387.755798,446.698364 
	C387.901978,448.183777 387.935913,449.714996 387.752808,451.192261 
	C386.859589,458.397827 388.332184,463.299438 395.778229,467.448059 
	C407.715790,474.099213 412.422852,490.536865 407.959686,502.905457 
	C402.687073,517.517212 389.748047,526.468750 375.584351,525.303406 
	C360.201965,524.037903 348.561310,513.906677 345.918518,499.484344 
	C343.237885,484.855713 349.735260,471.449219 363.110138,464.586304 
	C365.859070,463.175720 367.199402,461.537964 367.009827,458.428894 
	C366.707916,453.477814 368.472046,446.763916 365.912781,444.057037 
	C363.453491,441.455872 356.614258,442.843323 351.694702,442.755920 
	C344.057068,442.620209 336.415222,442.720062 327.991852,442.720062 
	C327.991852,445.111115 327.991913,447.041138 327.991882,448.971161 
	C327.991364,478.968842 328.000244,508.966553 327.984833,538.964233 
	C327.980011,548.363831 324.384430,551.987732 315.055878,551.992737 
	C285.224823,552.008606 255.393784,551.999512 225.562744,552.000000 
	C223.589890,552.000061 221.617035,552.000000 219.086868,552.000000 
	C218.959396,554.133850 218.768311,555.884949 218.764114,557.636475 
	C218.735809,569.468750 218.790848,581.301453 218.733627,593.133606 
	C218.672302,605.816895 209.648880,614.817932 196.964722,614.828247 
	C162.634048,614.856262 128.303329,614.856018 93.972656,614.827637 
	C81.503052,614.817322 72.360268,606.194885 72.287949,593.611328 
	C72.089699,559.115112 72.159866,524.616882 72.251297,490.119812 
	C72.284302,477.664520 82.248505,468.539673 94.254326,468.724335 
	C128.410294,469.249725 162.586441,469.303284 196.740067,468.707031 
	C209.533463,468.483704 219.243713,479.709015 218.840103,491.187042 
	C218.424545,503.004791 218.849792,514.849976 218.688766,526.680176 
	C218.642258,530.096497 219.640808,531.320618 223.200851,531.303772 
	C249.698227,531.179199 276.196686,531.183838 302.694153,531.299011 
	C306.191803,531.314209 307.285126,530.192139 307.269867,526.706116 
	C307.153839,500.208710 307.152771,473.710236 307.270996,447.212799 
	C307.286560,443.721405 306.193024,442.606567 302.700104,442.617004 
	C294.220215,442.642303 285.641754,443.004974 277.279205,441.899231 
	C260.919067,439.735962 250.312027,426.959290 250.237213,410.554871 
	C250.197800,401.915588 250.230240,393.275970 250.230240,384.769684 
	C242.658829,382.618713 241.142883,383.197327 237.663132,389.271301 
	C230.971817,400.951141 216.679962,407.462799 203.586197,404.797394 
	C189.748703,401.980591 179.659866,391.308197 177.920044,377.646576 
	C175.796173,360.969391 185.242645,346.736115 201.578934,341.999146 
	C216.197342,337.760284 232.125656,345.143066 238.841476,359.680908 
	C240.950256,364.245789 244.521652,363.015045 247.769409,362.906891 
	C251.619263,362.778717 250.093079,359.491272 250.158051,357.504425 
	C250.348602,351.677795 249.983093,345.827271 250.308929,340.012665 
	C250.535782,335.964508 249.085129,334.969696 245.195953,334.987061 
	C213.532349,335.128571 181.867828,335.071777 150.203598,335.062744 
	C139.391525,335.059662 136.134506,331.841675 136.131042,321.144379 
	C136.120590,288.813538 136.128586,256.482666 136.125351,224.151810 
	C136.124710,217.732498 136.115540,217.797058 129.510696,217.711853 
	C116.863823,217.548721 104.181152,217.825287 91.583038,216.934097 
	C80.892235,216.177826 73.334641,207.524582 73.285492,196.794434 
	C73.124413,161.631241 73.110016,126.466187 73.300003,91.303261 
	C73.358391,80.495949 82.877983,71.313873 93.690193,71.275696 
	C128.687012,71.152138 163.684647,71.134842 198.681549,71.232521 
	C210.676682,71.265999 219.743988,80.581993 219.767273,92.657074 
	C219.831543,125.987732 219.795898,159.318588 219.792297,192.649353 
	C219.790497,209.392441 211.877029,217.503891 195.135895,217.700119 
	C183.971619,217.830994 172.801788,217.867081 161.640305,217.647629 
	C157.846390,217.573044 156.833801,218.867340 156.849640,222.532532 
	C156.975006,251.529755 156.978088,280.528046 156.847168,309.525208 
	C156.830276,313.263062 157.975342,314.483917 161.703751,314.352661 
	C168.861008,314.100616 176.033829,314.229187 183.199448,314.289093 
	C203.683334,314.460327 224.169006,314.565552 244.648758,314.964600 
	C248.929871,315.048035 250.494537,314.058594 250.349396,309.486938 
	C250.011108,298.831818 250.228394,288.158630 250.245850,277.492798 
	C250.278122,257.789734 263.292999,244.573685 283.009430,244.285645 
	C289.674164,244.188278 296.343903,244.162872 303.006592,244.313446 
	C306.036285,244.381912 307.349487,243.279312 307.049988,240.247574 
	C306.952148,239.257385 306.909882,238.230255 307.057068,237.252350 
	C308.168457,229.867371 305.975616,225.113388 298.846283,221.000626 
	C286.438629,213.842972 282.115173,197.646378 287.153320,183.563324 
	C291.867157,170.386765 305.706604,161.951111 319.689606,162.809036 
	C335.797394,163.797318 346.855865,176.066635 349.562073,189.833923 
	C352.138397,202.940399 344.622833,217.332489 331.498749,224.027649 
	C328.680939,225.465149 327.773438,227.148392 327.764130,230.206299 
	C327.721375,244.268265 327.635590,244.268021 341.802612,244.268005 
	C353.135071,244.267975 364.471222,244.103241 375.798096,244.354370 
	C379.936584,244.446106 381.199341,243.193039 381.177460,239.014145 
	C381.018616,208.683960 381.085114,178.352585 381.097931,148.021576 
	C381.102234,137.810303 384.724152,134.198883 394.937531,134.196198 
	C427.435028,134.187683 459.932526,134.192795 492.430023,134.192657 
	C494.387238,134.192657 496.344452,134.192657 498.944672,134.192657 
	C498.944672,127.850975 498.943970,122.069427 498.944855,116.287880 
	C498.946075,108.455147 498.900879,100.622055 498.961487,92.789772 
	C499.055725,80.608109 507.681274,71.450157 519.979004,71.377655 
	C554.641785,71.173271 589.307312,71.172363 623.970093,71.378395 
	C636.266663,71.451477 644.904907,80.553978 644.933044,92.870323 
	C645.012268,127.534126 645.013062,162.198380 644.927490,196.862152 
	C644.898315,208.664185 636.369751,217.732803 624.553467,217.811157 
	C589.557800,218.043213 554.558777,218.030716 519.562805,217.823425 
	C507.482635,217.751877 499.034058,208.726776 498.969879,196.716187 
	C498.904877,184.550797 498.837524,172.383087 499.018768,160.220093 
	C499.074707,156.463821 498.182983,154.895966 494.034729,154.918228 
	C464.871155,155.074783 435.706024,155.066162 406.542297,154.922760 
	C402.719421,154.903961 401.782349,156.165527 401.800720,159.814270 
	C401.934021,186.311539 401.947815,212.810333 401.779999,239.307251 
	C401.754547,243.323715 403.036285,244.336044 406.911346,244.356018 
	C424.648346,244.447311 435.252441,251.132843 440.773346,266.126404 
	C442.506531,270.833252 442.656799,276.122955 443.563477,281.328735 
	C451.111908,281.328735 458.891235,281.512421 466.646637,281.163818 
	C468.087341,281.099060 469.918121,279.156403 470.747101,277.633179 
	C481.785583,257.350037 507.946533,253.449280 523.403809,270.289551 
	C532.513916,280.214874 534.722473,292.209229 529.306458,304.639313 
	C524.031677,316.745270 514.458984,323.596313 500.896942,324.021271 
	C486.752380,324.464478 476.860291,317.930298 470.297272,305.592773 
	C469.438507,303.978333 467.002655,302.366089 465.196808,302.244507 
	C459.058441,301.831146 452.867310,302.273590 446.711700,302.018219 
	C442.806122,301.856171 441.919983,303.546173 441.982178,307.071106 
	C442.152588,316.734009 442.202484,326.405914 441.964935,336.066010 
	C441.863983,340.171722 443.533813,341.104706 447.290680,341.091309 
	C477.954590,340.981842 508.619080,341.021545 539.283386,341.036316 
	C549.353333,341.041168 552.870972,344.520203 552.874573,354.476318 
	C552.887756,390.640198 552.950500,426.804413 552.793396,462.967590 
	C552.773865,467.463745 553.900696,469.136475 558.650391,469.006134 
	C570.140869,468.690704 581.677734,469.446472 593.136597,468.768585 
	C606.513367,467.977234 615.992798,478.603577 615.879883,491.513580 
	C615.658264,516.840698 615.806763,542.171021 615.801758,568.000000 
M273.858582,268.411987 
	C272.907074,271.000336 271.135803,273.585571 271.126007,276.177490 
	C270.956421,321.003601 270.967804,365.830597 271.040527,410.657227 
	C271.051910,417.673096 275.289032,421.906128 282.306488,421.918549 
	C324.800140,421.993866 367.294006,421.997986 409.787659,421.921997 
	C417.741486,421.907776 421.253632,418.141541 421.257660,410.131134 
	C421.280121,365.637665 421.280731,321.144196 421.254059,276.650726 
	C421.249268,268.625366 417.708099,265.048737 409.669525,265.041626 
	C367.509064,265.004364 325.348328,264.966248 283.188599,265.144318 
	C280.262268,265.156647 277.343353,266.920044 273.858582,268.411987 
M579.500000,92.039124 
	C561.013550,92.039421 542.526917,92.086014 524.040955,91.995262 
	C520.893616,91.979820 519.106323,92.477936 519.118958,96.284790 
	C519.226440,128.594055 519.212341,160.903931 519.125793,193.213333 
	C519.117432,196.342957 520.294861,197.165039 523.239197,197.158325 
	C555.548645,197.084549 587.858459,197.076172 620.167847,197.165939 
	C623.648682,197.175613 624.837341,195.926727 624.828735,192.495773 
	C624.749512,160.685974 624.749756,128.875824 624.821472,97.065994 
	C624.830200,93.195198 623.373718,91.898705 619.470154,91.961014 
	C606.483032,92.168335 593.490479,92.039284 579.500000,92.039124 
M490.015778,583.475342 
	C490.015778,586.901855 490.015778,590.328369 490.015778,594.146790 
	C492.272705,594.146790 493.748779,594.146790 495.224823,594.146790 
	C526.697693,594.146912 558.171143,594.051514 589.642700,594.253967 
	C594.165833,594.283142 595.169067,592.908508 595.144592,588.602661 
	C594.967102,557.463867 594.948914,526.322937 595.153748,495.184448 
	C595.185852,490.303253 593.667114,488.992310 588.913879,489.020569 
	C557.775146,489.205688 526.634827,489.112152 495.494995,489.126862 
	C493.874512,489.127625 492.254120,489.285583 490.015808,489.402649 
	C490.015808,520.648682 490.015808,551.564819 490.015778,583.475342 
M194.308990,196.942886 
	C198.623856,197.680786 199.124130,195.294891 199.112701,191.714417 
	C199.012207,160.218185 199.058578,128.721512 199.042343,97.224968 
	C199.041504,95.617508 198.865738,94.010147 198.771439,92.402740 
	C163.636642,92.402740 128.952347,92.402740 93.969185,92.402740 
	C93.969185,94.382721 93.969185,95.871887 93.969185,97.361046 
	C93.969131,128.690948 94.085037,160.021713 93.848152,191.349823 
	C93.811203,196.236282 95.513557,197.051239 99.858093,197.028992 
	C131.020523,196.869370 162.184158,196.943512 194.308990,196.942886 
M94.802910,594.072998 
	C129.049728,594.072998 163.296555,594.072998 197.754959,594.072998 
	C197.754959,558.884644 197.754959,524.329041 197.754959,489.499542 
	C196.200577,489.355316 194.914764,489.132599 193.628815,489.131805 
	C161.812347,489.112244 129.995499,489.187500 98.179771,489.032471 
	C93.833046,489.011292 92.903473,490.673035 92.918739,494.624908 
	C93.040298,526.107788 92.973305,557.591309 93.025673,589.074585 
	C93.028290,590.648438 93.599831,592.221313 94.802910,594.072998 
M489.111786,286.943542 
	C487.280792,291.676086 487.581421,296.118500 491.291534,299.841095 
	C494.231476,302.790955 497.703186,304.543182 502.077057,303.406921 
	C507.267120,302.058624 511.184906,297.529358 511.528809,292.425720 
	C511.842285,287.773987 508.237335,282.609497 503.526093,280.960785 
	C497.951782,279.010071 493.248291,280.776794 489.111786,286.943542 
M379.884125,504.803436 
	C380.801544,504.424805 381.742828,504.094910 382.632385,503.659363 
	C387.215332,501.415436 388.931976,497.384888 388.801453,492.648651 
	C388.668640,487.828705 385.022675,483.197113 380.845398,482.267426 
	C376.020508,481.193604 371.616394,481.985413 368.320801,486.150024 
	C365.335846,489.922058 365.039276,494.195526 366.886108,498.318726 
	C369.162872,503.401947 373.551239,505.421661 379.884125,504.803436 
M208.778671,384.957367 
	C210.392212,384.680237 212.103622,384.657379 213.601868,384.080688 
	C219.230164,381.914185 221.939362,376.929047 220.950638,370.945679 
	C220.192780,366.359528 215.696167,362.290955 210.972778,361.917633 
	C204.920105,361.439270 200.666550,364.184906 198.687607,369.847565 
	C196.462585,376.214355 200.075195,382.044434 208.778671,384.957367 
M306.683044,190.642502 
	C305.031891,195.836716 305.521088,200.542786 310.184387,204.005753 
	C314.903259,207.509995 319.060852,207.668945 323.559174,204.657837 
	C327.641235,201.925354 329.657928,198.051834 328.797852,193.152252 
	C327.985535,188.524811 325.121918,185.350739 320.559875,184.103668 
	C315.044678,182.596024 310.853180,184.513809 306.683044,190.642502 
z"/>
<path fill="#FFFFFE" opacity="1.000000" stroke="none" 
	d="
M274.139771,268.140564 
	C277.343353,266.920044 280.262268,265.156647 283.188599,265.144318 
	C325.348328,264.966248 367.509064,265.004364 409.669525,265.041626 
	C417.708099,265.048737 421.249268,268.625366 421.254059,276.650726 
	C421.280731,321.144196 421.280121,365.637665 421.257660,410.131134 
	C421.253632,418.141541 417.741486,421.907776 409.787659,421.921997 
	C367.294006,421.997986 324.800140,421.993866 282.306488,421.918549 
	C275.289032,421.906128 271.051910,417.673096 271.040527,410.657227 
	C270.967804,365.830597 270.956421,321.003601 271.126007,276.177490 
	C271.135803,273.585571 272.907074,271.000336 274.139771,268.140564 
z"/>
<path fill="#FFFDF9" opacity="1.000000" stroke="none" 
	d="
M580.000000,92.039154 
	C593.490479,92.039284 606.483032,92.168335 619.470154,91.961014 
	C623.373718,91.898705 624.830200,93.195198 624.821472,97.065994 
	C624.749756,128.875824 624.749512,160.685974 624.828735,192.495773 
	C624.837341,195.926727 623.648682,197.175613 620.167847,197.165939 
	C587.858459,197.076172 555.548645,197.084549 523.239197,197.158325 
	C520.294861,197.165039 519.117432,196.342957 519.125793,193.213333 
	C519.212341,160.903931 519.226440,128.594055 519.118958,96.284790 
	C519.106323,92.477936 520.893616,91.979820 524.040955,91.995262 
	C542.526917,92.086014 561.013550,92.039421 580.000000,92.039154 
M612.888306,127.504959 
	C612.887146,123.673134 612.933228,119.840591 612.875061,116.009628 
	C612.751465,107.871330 608.927856,103.953743 600.936218,103.935257 
	C581.610718,103.890549 562.285034,103.892097 542.959473,103.931900 
	C534.826904,103.948647 531.018677,107.742508 531.000549,115.855484 
	C530.957703,135.014389 530.955933,154.173508 531.000488,173.332397 
	C531.019897,181.687576 534.501221,185.186707 542.828308,185.207382 
	C561.987183,185.254959 581.146240,185.244858 600.305176,185.214249 
	C609.468140,185.199615 612.834351,181.790970 612.863281,172.485336 
	C612.908875,157.824661 612.883423,143.163788 612.888306,127.504959 
z"/>
<path fill="#FFFDF9" opacity="1.000000" stroke="none" 
	d="
M490.015808,582.978149 
	C490.015808,551.564819 490.015808,520.648682 490.015808,489.402649 
	C492.254120,489.285583 493.874512,489.127625 495.494995,489.126862 
	C526.634827,489.112152 557.775146,489.205688 588.913879,489.020569 
	C593.667114,488.992310 595.185852,490.303253 595.153748,495.184448 
	C594.948914,526.322937 594.967102,557.463867 595.144592,588.602661 
	C595.169067,592.908508 594.165833,594.283142 589.642700,594.253967 
	C558.171143,594.051514 526.697693,594.146912 495.224823,594.146790 
	C493.748779,594.146790 492.272705,594.146790 490.015778,594.146790 
	C490.015778,590.328369 490.015778,586.901855 490.015808,582.978149 
M583.179504,565.453491 
	C583.178101,547.815002 583.199707,530.176392 583.164917,512.537964 
	C583.149292,504.605438 579.566833,501.035553 571.537109,501.017609 
	C552.234741,500.974457 532.932129,500.978363 513.629700,501.015503 
	C505.707703,501.030731 501.910156,504.728973 501.887024,512.544678 
	C501.829376,532.013367 501.836395,551.482483 501.873535,570.951294 
	C501.887177,578.106506 505.558746,582.595032 512.598633,582.692749 
	C532.562378,582.969971 552.535034,582.972717 572.498596,582.688660 
	C579.530396,582.588623 583.099304,578.095703 583.174011,570.926147 
	C583.189636,569.428650 583.178528,567.930969 583.179504,565.453491 
z"/>
<path fill="#FFFDF8" opacity="1.000000" stroke="none" 
	d="
M193.828201,196.943146 
	C162.184158,196.943512 131.020523,196.869370 99.858093,197.028992 
	C95.513557,197.051239 93.811203,196.236282 93.848152,191.349823 
	C94.085037,160.021713 93.969131,128.690948 93.969185,97.361046 
	C93.969185,95.871887 93.969185,94.382721 93.969185,92.402740 
	C128.952347,92.402740 163.636642,92.402740 198.771439,92.402740 
	C198.865738,94.010147 199.041504,95.617508 199.042343,97.224968 
	C199.058578,128.721512 199.012207,160.218185 199.112701,191.714417 
	C199.124130,195.294891 198.623856,197.680786 193.828201,196.943146 
M104.907150,156.499969 
	C104.908615,162.494385 104.879219,168.488998 104.919128,174.483170 
	C104.972626,182.517502 108.426987,186.056076 116.480034,186.078613 
	C136.461212,186.134552 156.442764,186.131500 176.423965,186.079224 
	C184.518707,186.058044 188.049515,182.555237 188.067932,174.569977 
	C188.114410,154.422211 188.118271,134.274216 188.072586,114.126472 
	C188.054962,106.348595 184.572937,102.852974 176.764664,102.830673 
	C156.616974,102.773117 136.468918,102.772987 116.321228,102.829063 
	C108.272202,102.851463 104.942841,106.325790 104.921188,114.538261 
	C104.885178,128.192093 104.908592,141.846085 104.907150,156.499969 
z"/>
<path fill="#FFFDF9" opacity="1.000000" stroke="none" 
	d="
M94.354691,593.933838 
	C93.599831,592.221313 93.028290,590.648438 93.025673,589.074585 
	C92.973305,557.591309 93.040298,526.107788 92.918739,494.624908 
	C92.903473,490.673035 93.833046,489.011292 98.179771,489.032471 
	C129.995499,489.187500 161.812347,489.112244 193.628815,489.131805 
	C194.914764,489.132599 196.200577,489.355316 197.754959,489.499542 
	C197.754959,524.329041 197.754959,558.884644 197.754959,594.072998 
	C163.296555,594.072998 129.049728,594.072998 94.354691,593.933838 
M117.838623,583.833801 
	C135.483688,583.834045 153.128799,583.848328 170.773804,583.814880 
	C172.758316,583.811157 174.761887,583.666504 176.723160,583.367615 
	C184.518692,582.179688 187.076996,579.266907 187.091507,571.471558 
	C187.128387,551.662537 187.137924,531.853333 187.102051,512.044312 
	C187.086838,503.646912 183.335861,499.976471 174.828598,499.964447 
	C155.352478,499.936920 135.876282,499.939240 116.400139,499.963013 
	C107.409050,499.973969 103.872437,503.606445 103.865044,512.787415 
	C103.849762,531.764160 103.855324,550.740967 103.861595,569.717712 
	C103.865021,580.091858 106.270340,582.680359 117.838623,583.833801 
z"/>
<path fill="#FFFDF9" opacity="1.000000" stroke="none" 
	d="
M489.283691,286.594666 
	C493.248291,280.776794 497.951782,279.010071 503.526093,280.960785 
	C508.237335,282.609497 511.842285,287.773987 511.528809,292.425720 
	C511.184906,297.529358 507.267120,302.058624 502.077057,303.406921 
	C497.703186,304.543182 494.231476,302.790955 491.291534,299.841095 
	C487.581421,296.118500 487.280792,291.676086 489.283691,286.594666 
z"/>
<path fill="#FFFDF8" opacity="1.000000" stroke="none" 
	d="
M379.482971,504.862732 
	C373.551239,505.421661 369.162872,503.401947 366.886108,498.318726 
	C365.039276,494.195526 365.335846,489.922058 368.320801,486.150024 
	C371.616394,481.985413 376.020508,481.193604 380.845398,482.267426 
	C385.022675,483.197113 388.668640,487.828705 388.801453,492.648651 
	C388.931976,497.384888 387.215332,501.415436 382.632385,503.659363 
	C381.742828,504.094910 380.801544,504.424805 379.482971,504.862732 
z"/>
<path fill="#FFFDF8" opacity="1.000000" stroke="none" 
	d="
M208.383057,384.906555 
	C200.075195,382.044434 196.462585,376.214355 198.687607,369.847565 
	C200.666550,364.184906 204.920105,361.439270 210.972778,361.917633 
	C215.696167,362.290955 220.192780,366.359528 220.950638,370.945679 
	C221.939362,376.929047 219.230164,381.914185 213.601868,384.080688 
	C212.103622,384.657379 210.392212,384.680237 208.383057,384.906555 
z"/>
<path fill="#FFFDF9" opacity="1.000000" stroke="none" 
	d="
M306.856110,190.284882 
	C310.853180,184.513809 315.044678,182.596024 320.559875,184.103668 
	C325.121918,185.350739 327.985535,188.524811 328.797852,193.152252 
	C329.657928,198.051834 327.641235,201.925354 323.559174,204.657837 
	C319.060852,207.668945 314.903259,207.509995 310.184387,204.005753 
	C305.521088,200.542786 305.031891,195.836716 306.856110,190.284882 
z"/>
<path fill="#FFCB66" opacity="1.000000" stroke="none" 
	d="
M612.888184,128.003967 
	C612.883423,143.163788 612.908875,157.824661 612.863281,172.485336 
	C612.834351,181.790970 609.468140,185.199615 600.305176,185.214249 
	C581.146240,185.244858 561.987183,185.254959 542.828308,185.207382 
	C534.501221,185.186707 531.019897,181.687576 531.000488,173.332397 
	C530.955933,154.173508 530.957703,135.014389 531.000549,115.855484 
	C531.018677,107.742508 534.826904,103.948647 542.959473,103.931900 
	C562.285034,103.892097 581.610718,103.890549 600.936218,103.935257 
	C608.927856,103.953743 612.751465,107.871330 612.875061,116.009628 
	C612.933228,119.840591 612.887146,123.673134 612.888184,128.003967 
M573.499634,165.032562 
	C578.485291,165.030945 583.474182,164.921585 588.455444,165.069427 
	C591.295898,165.153717 592.222412,164.025116 592.181763,161.260864 
	C592.061951,153.119354 592.140137,144.974930 592.140625,136.831650 
	C592.140869,132.745697 592.140686,128.659760 592.140686,124.092224 
	C578.936096,124.092224 566.509705,124.007996 554.089783,124.253334 
	C553.104370,124.272797 551.354431,126.560364 551.329651,127.820793 
	C551.110779,138.951172 551.241394,150.087891 551.174255,161.222153 
	C551.157532,163.993011 552.303711,165.098618 555.050415,165.055252 
	C560.865601,164.963440 566.683228,165.030640 573.499634,165.032562 
z"/>
<path fill="#FFCA65" opacity="1.000000" stroke="none" 
	d="
M583.179565,565.943420 
	C583.178528,567.930969 583.189636,569.428650 583.174011,570.926147 
	C583.099304,578.095703 579.530396,582.588623 572.498596,582.688660 
	C552.535034,582.972717 532.562378,582.969971 512.598633,582.692749 
	C505.558746,582.595032 501.887177,578.106506 501.873535,570.951294 
	C501.836395,551.482483 501.829376,532.013367 501.887024,512.544678 
	C501.910156,504.728973 505.707703,501.030731 513.629700,501.015503 
	C532.932129,500.978363 552.234741,500.974457 571.537109,501.017609 
	C579.566833,501.035553 583.149292,504.605438 583.164917,512.537964 
	C583.199707,530.176392 583.178101,547.815002 583.179565,565.943420 
M522.023682,542.499817 
	C522.023682,548.911072 522.023682,555.322388 522.023682,562.090271 
	C535.327393,562.090271 547.781006,562.169556 560.228577,561.931885 
	C561.170837,561.913879 562.844910,559.657043 562.868042,558.416382 
	C563.075684,547.278687 562.940918,536.135193 563.023865,524.994263 
	C563.044617,522.210815 561.928894,521.113953 559.187744,521.128601 
	C548.046509,521.188171 536.904663,521.191162 525.763428,521.131226 
	C522.982300,521.116272 521.929504,522.281799 521.990601,525.038330 
	C522.112183,530.523254 522.024780,536.012756 522.023682,542.499817 
z"/>
<path fill="#FFCA65" opacity="1.000000" stroke="none" 
	d="
M104.907059,155.999985 
	C104.908592,141.846085 104.885178,128.192093 104.921188,114.538261 
	C104.942841,106.325790 108.272202,102.851463 116.321228,102.829063 
	C136.468918,102.772987 156.616974,102.773117 176.764664,102.830673 
	C184.572937,102.852974 188.054962,106.348595 188.072586,114.126472 
	C188.118271,134.274216 188.114410,154.422211 188.067932,174.569977 
	C188.049515,182.555237 184.518707,186.058044 176.423965,186.079224 
	C156.442764,186.131500 136.461212,186.134552 116.480034,186.078613 
	C108.426987,186.056076 104.972626,182.517502 104.919128,174.483170 
	C104.879219,168.488998 104.908615,162.494385 104.907059,155.999985 
M167.942017,160.334442 
	C167.942108,149.683792 167.790649,139.029846 168.021164,128.384186 
	C168.106583,124.439018 167.243591,122.775673 162.857590,122.896767 
	C151.882462,123.199799 140.890869,123.129013 129.911285,122.921951 
	C126.284065,122.853546 124.833191,123.774895 125.019684,127.638962 
	C125.316185,133.782059 125.098618,139.949966 125.098564,146.107391 
	C125.098511,152.535767 125.098549,158.964157 125.098549,165.882172 
	C138.917465,165.882172 152.025146,165.865112 165.132736,165.893356 
	C168.709671,165.901047 167.760361,163.279572 167.942017,160.334442 
z"/>
<path fill="#FFCA65" opacity="1.000000" stroke="none" 
	d="
M117.383224,583.832397 
	C106.270340,582.680359 103.865021,580.091858 103.861595,569.717712 
	C103.855324,550.740967 103.849762,531.764160 103.865044,512.787415 
	C103.872437,503.606445 107.409050,499.973969 116.400139,499.963013 
	C135.876282,499.939240 155.352478,499.936920 174.828598,499.964447 
	C183.335861,499.976471 187.086838,503.646912 187.102051,512.044312 
	C187.137924,531.853333 187.128387,551.662537 187.091507,571.471558 
	C187.076996,579.266907 184.518692,582.179688 176.723160,583.367615 
	C174.761887,583.666504 172.758316,583.811157 170.773804,583.814880 
	C153.128799,583.848328 135.483688,583.834045 117.383224,583.832397 
M138.505585,563.058533 
	C146.504257,563.058350 154.507370,562.901672 162.499557,563.129150 
	C166.083633,563.231079 167.059265,561.931030 167.005890,558.503723 
	C166.832062,547.341675 166.823715,536.173279 167.006119,525.011475 
	C167.066742,521.301575 165.814041,520.052002 162.103302,520.121765 
	C151.775345,520.316040 141.441376,520.189087 131.109772,520.189026 
	C128.868134,520.189026 126.626495,520.189026 124.391838,520.189026 
	C124.391838,534.861145 124.391838,548.629944 124.391838,563.058655 
	C128.954071,563.058655 133.231735,563.058655 138.505585,563.058533 
z"/>
<path fill="#FFFDFA" opacity="1.000000" stroke="none" 
	d="
M572.999756,165.032593 
	C566.683228,165.030640 560.865601,164.963440 555.050415,165.055252 
	C552.303711,165.098618 551.157532,163.993011 551.174255,161.222153 
	C551.241394,150.087891 551.110779,138.951172 551.329651,127.820793 
	C551.354431,126.560364 553.104370,124.272797 554.089783,124.253334 
	C566.509705,124.007996 578.936096,124.092224 592.140686,124.092224 
	C592.140686,128.659760 592.140869,132.745697 592.140625,136.831650 
	C592.140137,144.974930 592.061951,153.119354 592.181763,161.260864 
	C592.222412,164.025116 591.295898,165.153717 588.455444,165.069427 
	C583.474182,164.921585 578.485291,165.030945 572.999756,165.032593 
z"/>
<path fill="#FFFEFB" opacity="1.000000" stroke="none" 
	d="
M522.023682,542.000122 
	C522.024780,536.012756 522.112183,530.523254 521.990601,525.038330 
	C521.929504,522.281799 522.982300,521.116272 525.763428,521.131226 
	C536.904663,521.191162 548.046509,521.188171 559.187744,521.128601 
	C561.928894,521.113953 563.044617,522.210815 563.023865,524.994263 
	C562.940918,536.135193 563.075684,547.278687 562.868042,558.416382 
	C562.844910,559.657043 561.170837,561.913879 560.228577,561.931885 
	C547.781006,562.169556 535.327393,562.090271 522.023682,562.090271 
	C522.023682,555.322388 522.023682,548.911072 522.023682,542.000122 
z"/>
<path fill="#FFFDFA" opacity="1.000000" stroke="none" 
	d="
M167.941528,160.810196 
	C167.760361,163.279572 168.709671,165.901047 165.132736,165.893356 
	C152.025146,165.865112 138.917465,165.882172 125.098549,165.882172 
	C125.098549,158.964157 125.098511,152.535767 125.098564,146.107391 
	C125.098618,139.949966 125.316185,133.782059 125.019684,127.638962 
	C124.833191,123.774895 126.284065,122.853546 129.911285,122.921951 
	C140.890869,123.129013 151.882462,123.199799 162.857590,122.896767 
	C167.243591,122.775673 168.106583,124.439018 168.021164,128.384186 
	C167.790649,139.029846 167.942108,149.683792 167.941528,160.810196 
z"/>
<path fill="#FFFDFA" opacity="1.000000" stroke="none" 
	d="
M138.007477,563.058594 
	C133.231735,563.058655 128.954071,563.058655 124.391838,563.058655 
	C124.391838,548.629944 124.391838,534.861145 124.391838,520.189026 
	C126.626495,520.189026 128.868134,520.189026 131.109772,520.189026 
	C141.441376,520.189087 151.775345,520.316040 162.103302,520.121765 
	C165.814041,520.052002 167.066742,521.301575 167.006119,525.011475 
	C166.823715,536.173279 166.832062,547.341675 167.005890,558.503723 
	C167.059265,561.931030 166.083633,563.231079 162.499557,563.129150 
	C154.507370,562.901672 146.504257,563.058350 138.007477,563.058594 
z"/>
</svg>